<svg width="96" height="61" viewBox="0 0 96 61" fill="none" xmlns="http://www.w3.org/2000/svg">
<path d="M0 22.1276C0 22.1276 0 18.997 3.26664 22.1276C6.53328 25.2581 21.6415 25.122 24.9081 22.1276C28.1748 19.1331 28.1748 22.1276 28.1748 22.1276V27.64C28.1748 35.4203 21.8676 41.7274 14.0874 41.7274V41.7274C6.30714 41.7274 0 35.4203 0 27.64V22.1276Z" fill="#DBC1AC"/>
<path fill-rule="evenodd" clip-rule="evenodd" d="M14.0874 26.1134C21.8676 26.1134 28.1748 24.0415 28.1748 21.4857C28.1748 18.9299 21.8676 16.858 14.0874 16.858C6.30713 16.858 0 18.9299 0 21.4857C0 24.0415 6.30713 26.1134 14.0874 26.1134ZM14.1048 23.8667C20.728 23.8667 26.0971 22.4651 26.0971 20.7362C26.0971 19.0072 20.728 17.6057 14.1048 17.6057C7.48161 17.6057 2.11246 19.0072 2.11246 20.7362C2.11246 22.4651 7.48161 23.8667 14.1048 23.8667Z" fill="#DBC1AC"/>
<path fill-rule="evenodd" clip-rule="evenodd" d="M22.8741 32.6589C24.9272 35.3835 28.9648 35.8039 31.8923 33.5979C34.8198 31.3919 35.5286 27.3948 33.4755 24.6702C31.4223 21.9456 27.3847 21.5252 24.4572 23.7312C21.5297 25.9373 20.8209 29.9343 22.8741 32.6589ZM23.8712 31.9075C25.422 33.9655 28.6059 34.1818 30.9827 32.3908C33.3595 30.5998 34.0291 27.4796 32.4783 25.4216C30.9275 23.3637 27.7436 23.1473 25.3668 24.9383C22.9901 26.7294 22.3204 29.8496 23.8712 31.9075Z" fill="#DBC1AC"/>
<path d="M13.0013 1.01285C13.0013 1.01285 10.6298 3.37936 13.0799 7.53351C15.5299 11.6877 13.1584 14.0542 13.1584 14.0542" stroke="#DBC1AC" stroke-width="2" stroke-linecap="round"/>
<path d="M7.91634 7.52066C7.91634 7.52066 5.53632 9.17819 7.97108 12.0636C10.4058 14.9491 8.02581 16.6066 8.02581 16.6066" stroke="#DBC1AC" stroke-linecap="round"/>
<path d="M19.0969 5.6926C19.0969 5.6926 16.7187 7.49601 19.1566 10.6425C21.5945 13.789 19.2162 15.5924 19.2162 15.5924" stroke="#DBC1AC" stroke-width="1.4" stroke-linecap="round"/>
<path d="M47.3336 27.6839C47.3336 27.956 47.2978 28.2425 47.2262 28.5433C47.1689 28.8441 47.0686 29.1234 46.9254 29.3812C46.7822 29.639 46.596 29.8538 46.3668 30.0257C46.1377 30.1976 45.8584 30.2835 45.5289 30.2835C45.0276 30.2835 44.6552 30.1976 44.4117 30.0257C44.1683 29.8395 43.9964 29.6103 43.8961 29.3382C43.7959 29.0661 43.7386 28.7796 43.7242 28.4788C43.7242 28.1637 43.7171 27.8701 43.7028 27.598C43.6884 27.3258 43.6383 27.1038 43.5524 26.9319C43.4808 26.7457 43.316 26.6526 43.0582 26.6526C42.7718 26.6526 42.5211 26.7601 42.3063 26.9749C42.0914 27.1754 41.9052 27.4404 41.7477 27.7698C41.5901 28.0993 41.4541 28.4717 41.3395 28.887C41.2392 29.3024 41.1533 29.7178 41.0817 30.1331C41.0244 30.5342 40.9814 30.9209 40.9528 31.2933C40.9241 31.6513 40.9098 31.945 40.9098 32.1741C40.9098 32.4749 40.917 32.833 40.9313 33.2484C40.9599 33.6637 41.0315 34.0648 41.1461 34.4515C41.2607 34.8239 41.4326 35.1461 41.6617 35.4183C41.8909 35.6761 42.2203 35.805 42.65 35.805C42.9365 35.805 43.2158 35.7692 43.4879 35.6976C43.7601 35.626 44.0322 35.5472 44.3043 35.4612C44.5765 35.361 44.8486 35.275 45.1207 35.2034C45.4072 35.1318 45.6936 35.096 45.9801 35.096C46.3095 35.096 46.5817 35.2321 46.7965 35.5042C47.0114 35.762 47.1188 36.0556 47.1188 36.3851C47.1188 36.8434 46.9755 37.2731 46.6891 37.6741C46.4026 38.0609 46.0446 38.4046 45.6149 38.7054C45.1995 39.0062 44.7412 39.2425 44.2399 39.4144C43.7529 39.5862 43.3089 39.6722 42.9078 39.6722C41.8766 39.6722 41.0029 39.4359 40.2867 38.9632C39.5706 38.5049 38.9905 37.9105 38.5465 37.18C38.1025 36.4352 37.7802 35.6116 37.5797 34.7093C37.3935 33.7926 37.3004 32.8831 37.3004 31.9808C37.3004 31.3792 37.3577 30.7204 37.4723 30.0042C37.5869 29.2881 37.7587 28.5719 37.9879 27.8558C38.2171 27.1253 38.5035 26.4235 38.8473 25.7503C39.2054 25.0771 39.6207 24.4827 40.0934 23.9671C40.566 23.4515 41.096 23.0361 41.6832 22.721C42.2848 22.4059 42.9436 22.2484 43.6598 22.2484C44.3616 22.2484 44.9489 22.4274 45.4215 22.7855C45.8942 23.1292 46.2737 23.5732 46.5602 24.1175C46.8466 24.6474 47.0472 25.2347 47.1617 25.8792C47.2763 26.5094 47.3336 27.111 47.3336 27.6839ZM52.275 39.2425C51.5446 39.2425 50.9072 39.0491 50.3629 38.6624C49.8186 38.2757 49.3603 37.7816 48.9879 37.18C48.6155 36.5784 48.3362 35.9124 48.15 35.1819C47.9638 34.4372 47.8707 33.7067 47.8707 32.9905C47.8707 32.2314 47.9638 31.4508 48.15 30.6487C48.3362 29.8323 48.6227 29.0947 49.0094 28.4359C49.3961 27.7627 49.8903 27.2184 50.4918 26.803C51.0934 26.3734 51.8095 26.1585 52.6403 26.1585C53.4423 26.1585 54.1227 26.3805 54.6813 26.8245C55.2542 27.2542 55.7125 27.7985 56.0563 28.4573C56.4 29.1019 56.6435 29.8109 56.7867 30.5843C56.93 31.3577 56.9801 32.0882 56.9371 32.7757C56.8942 33.5348 56.7724 34.3011 56.5719 35.0745C56.3857 35.848 56.1064 36.5426 55.734 37.1585C55.3616 37.7744 54.889 38.2757 54.316 38.6624C53.7431 39.0491 53.0628 39.2425 52.275 39.2425ZM52.4899 29.5316C52.275 29.5316 52.0817 29.6461 51.9098 29.8753C51.7522 30.1045 51.6162 30.3838 51.5016 30.7132C51.4013 31.0426 51.3226 31.3935 51.2653 31.7659C51.208 32.124 51.1793 32.4391 51.1793 32.7112C51.1793 33.055 51.208 33.4274 51.2653 33.8284C51.3369 34.2295 51.43 34.6019 51.5446 34.9456C51.6591 35.275 51.7952 35.5543 51.9528 35.7835C52.1246 35.9984 52.318 36.1058 52.5328 36.1058C52.762 36.1058 52.9554 35.9984 53.1129 35.7835C53.2848 35.5687 53.4209 35.2965 53.5211 34.9671C53.6214 34.6377 53.693 34.2796 53.736 33.8929C53.7789 33.4918 53.8004 33.1194 53.8004 32.7757C53.8004 32.4606 53.7718 32.1168 53.7145 31.7444C53.6572 31.3577 53.5712 30.9997 53.4567 30.6702C53.3564 30.3408 53.2203 30.0687 53.0485 29.8538C52.8909 29.639 52.7047 29.5316 52.4899 29.5316ZM67.0348 25.7718C67.0348 26.0439 67.0061 26.3089 66.9489 26.5667C66.9059 26.8102 66.8199 27.025 66.691 27.2112C66.5621 27.3974 66.3903 27.5478 66.1754 27.6624C65.9606 27.7627 65.6956 27.8128 65.3805 27.8128C65.0224 27.8128 64.7574 27.7412 64.5856 27.598C64.4137 27.4547 64.292 27.2829 64.2203 27.0823C64.163 26.8675 64.1344 26.6383 64.1344 26.3948C64.1344 26.1513 64.1201 25.9293 64.0914 25.7288C64.0771 25.514 64.027 25.3349 63.941 25.1917C63.8551 25.0485 63.6976 24.9769 63.4684 24.9769C63.2535 24.9769 63.0745 25.1416 62.9313 25.471C62.8024 25.8004 62.6949 26.18 62.609 26.6097C62.5231 27.0394 62.4658 27.4619 62.4371 27.8773C62.4085 28.2783 62.3942 28.5504 62.3942 28.6937C62.5804 28.665 62.7594 28.6435 62.9313 28.6292C63.1031 28.6006 63.2893 28.5862 63.4899 28.5862C63.6904 28.5862 63.8981 28.6077 64.1129 28.6507C64.3278 28.6937 64.5283 28.7653 64.7145 28.8655C64.9007 28.9515 65.0511 29.0804 65.1656 29.2523C65.2802 29.4098 65.3375 29.6103 65.3375 29.8538C65.3375 30.1116 65.2229 30.3408 64.9938 30.5413C64.7789 30.7418 64.514 30.9137 64.1989 31.0569C63.8981 31.1859 63.5901 31.2933 63.275 31.3792C62.9599 31.4651 62.7093 31.5224 62.5231 31.5511C62.566 32.5394 62.5875 33.5348 62.5875 34.5374C62.5875 35.4827 62.566 36.4137 62.5231 37.3304C62.4944 37.7744 62.3369 38.1396 62.0504 38.4261C61.7783 38.7125 61.4202 38.8558 60.9762 38.8558C60.7327 38.8558 60.525 38.8056 60.3531 38.7054C60.1813 38.6194 60.038 38.4977 59.9235 38.3401C59.8089 38.1826 59.7158 38.0036 59.6442 37.803C59.5869 37.6025 59.5511 37.3948 59.5367 37.18C59.4651 36.3206 59.4078 35.4612 59.3649 34.6019C59.3219 33.7282 59.3076 32.8545 59.3219 31.9808C59.2216 31.9951 59.1214 32.0023 59.0211 32.0023C58.9352 32.0023 58.8421 32.0023 58.7418 32.0023C58.5699 32.0023 58.3623 31.9808 58.1188 31.9378C57.8753 31.8948 57.639 31.8232 57.4098 31.723C57.1949 31.6084 57.0087 31.4723 56.8512 31.3148C56.6936 31.1572 56.6149 30.9567 56.6149 30.7132C56.6149 30.3981 56.7223 30.1331 56.9371 29.9183C57.1377 29.7034 57.3811 29.5316 57.6676 29.4026C57.9684 29.2594 58.2763 29.1592 58.5914 29.1019C58.9209 29.0446 59.2073 29.0016 59.4508 28.973V28.6292C59.4508 27.9274 59.5153 27.1754 59.6442 26.3734C59.7731 25.5713 60.0022 24.8265 60.3317 24.139C60.6611 23.4515 61.1123 22.8857 61.6852 22.4417C62.2581 21.9834 62.9886 21.7542 63.8766 21.7542C64.4352 21.7542 64.915 21.876 65.316 22.1194C65.7171 22.3486 66.0465 22.6566 66.3043 23.0433C66.5621 23.4157 66.7483 23.8454 66.8629 24.3323C66.9775 24.805 67.0348 25.2848 67.0348 25.7718ZM75.2418 25.7718C75.2418 26.0439 75.2132 26.3089 75.1559 26.5667C75.1129 26.8102 75.027 27.025 74.8981 27.2112C74.7692 27.3974 74.5973 27.5478 74.3824 27.6624C74.1676 27.7627 73.9026 27.8128 73.5875 27.8128C73.2295 27.8128 72.9645 27.7412 72.7926 27.598C72.6207 27.4547 72.499 27.2829 72.4274 27.0823C72.3701 26.8675 72.3414 26.6383 72.3414 26.3948C72.3414 26.1513 72.3271 25.9293 72.2985 25.7288C72.2841 25.514 72.234 25.3349 72.1481 25.1917C72.0621 25.0485 71.9046 24.9769 71.6754 24.9769C71.4606 24.9769 71.2815 25.1416 71.1383 25.471C71.0094 25.8004 70.902 26.18 70.816 26.6097C70.7301 27.0394 70.6728 27.4619 70.6442 27.8773C70.6155 28.2783 70.6012 28.5504 70.6012 28.6937C70.7874 28.665 70.9664 28.6435 71.1383 28.6292C71.3102 28.6006 71.4964 28.5862 71.6969 28.5862C71.8974 28.5862 72.1051 28.6077 72.3199 28.6507C72.5348 28.6937 72.7353 28.7653 72.9215 28.8655C73.1077 28.9515 73.2581 29.0804 73.3727 29.2523C73.4873 29.4098 73.5446 29.6103 73.5446 29.8538C73.5446 30.1116 73.43 30.3408 73.2008 30.5413C72.986 30.7418 72.721 30.9137 72.4059 31.0569C72.1051 31.1859 71.7972 31.2933 71.4821 31.3792C71.167 31.4651 70.9163 31.5224 70.7301 31.5511C70.7731 32.5394 70.7946 33.5348 70.7946 34.5374C70.7946 35.4827 70.7731 36.4137 70.7301 37.3304C70.7015 37.7744 70.5439 38.1396 70.2574 38.4261C69.9853 38.7125 69.6272 38.8558 69.1832 38.8558C68.9397 38.8558 68.7321 38.8056 68.5602 38.7054C68.3883 38.6194 68.2451 38.4977 68.1305 38.3401C68.0159 38.1826 67.9228 38.0036 67.8512 37.803C67.7939 37.6025 67.7581 37.3948 67.7438 37.18C67.6722 36.3206 67.6149 35.4612 67.5719 34.6019C67.5289 33.7282 67.5146 32.8545 67.5289 31.9808C67.4287 31.9951 67.3284 32.0023 67.2281 32.0023C67.1422 32.0023 67.0491 32.0023 66.9489 32.0023C66.777 32.0023 66.5693 31.9808 66.3258 31.9378C66.0823 31.8948 65.846 31.8232 65.6168 31.723C65.402 31.6084 65.2158 31.4723 65.0582 31.3148C64.9007 31.1572 64.8219 30.9567 64.8219 30.7132C64.8219 30.3981 64.9293 30.1331 65.1442 29.9183C65.3447 29.7034 65.5882 29.5316 65.8746 29.4026C66.1754 29.2594 66.4834 29.1592 66.7985 29.1019C67.1279 29.0446 67.4143 29.0016 67.6578 28.973V28.6292C67.6578 27.9274 67.7223 27.1754 67.8512 26.3734C67.9801 25.5713 68.2093 24.8265 68.5387 24.139C68.8681 23.4515 69.3193 22.8857 69.8922 22.4417C70.4651 21.9834 71.1956 21.7542 72.0836 21.7542C72.6422 21.7542 73.122 21.876 73.5231 22.1194C73.9241 22.3486 74.2535 22.6566 74.5114 23.0433C74.7692 23.4157 74.9554 23.8454 75.0699 24.3323C75.1845 24.805 75.2418 25.2848 75.2418 25.7718ZM83.4489 34.7952C83.4489 35.2822 83.2913 35.762 82.9762 36.2347C82.6754 36.693 82.2887 37.1084 81.816 37.4808C81.3577 37.8388 80.8636 38.1325 80.3336 38.3616C79.8037 38.5765 79.3167 38.6839 78.8727 38.6839C78.1136 38.6839 77.4332 38.4977 76.8317 38.1253C76.2444 37.7386 75.7503 37.2516 75.3492 36.6644C74.9482 36.0771 74.6403 35.4326 74.4254 34.7308C74.2249 34.0146 74.1246 33.32 74.1246 32.6468C74.1246 31.9306 74.2249 31.1644 74.4254 30.348C74.6259 29.5316 74.9267 28.7796 75.3278 28.0921C75.7431 27.4046 76.2587 26.8317 76.8746 26.3734C77.5048 25.915 78.2496 25.6859 79.109 25.6859C79.596 25.6859 80.0615 25.7718 80.5055 25.9437C80.9495 26.1012 81.3362 26.3304 81.6656 26.6312C81.9951 26.9319 82.2601 27.29 82.4606 27.7054C82.6611 28.1207 82.7614 28.5862 82.7614 29.1019C82.7614 29.775 82.6181 30.4053 82.3317 30.9925C82.0452 31.5797 81.6656 32.0882 81.193 32.5179C80.7203 32.9476 80.1761 33.2985 79.5602 33.5706C78.9443 33.8284 78.3141 33.9717 77.6696 34.0003C77.7268 34.4157 77.8916 34.7165 78.1637 34.9026C78.4502 35.0888 78.7867 35.1819 79.1735 35.1819C79.4599 35.1819 79.7392 35.1103 80.0114 34.9671C80.2835 34.8239 80.5485 34.6663 80.8063 34.4944C81.0641 34.3082 81.3147 34.1435 81.5582 34.0003C81.816 33.8571 82.0739 33.7855 82.3317 33.7855C82.6181 33.7855 82.8759 33.8786 83.1051 34.0648C83.3343 34.251 83.4489 34.4944 83.4489 34.7952ZM79.9684 29.5316C79.9684 29.3454 79.9183 29.152 79.818 28.9515C79.7177 28.751 79.5602 28.6507 79.3453 28.6507C79.0302 28.6507 78.7653 28.7366 78.5504 28.9085C78.3356 29.0661 78.1565 29.2737 78.0133 29.5316C77.8701 29.775 77.7555 30.04 77.6696 30.3265C77.5979 30.6129 77.555 30.8779 77.5406 31.1214C77.7412 31.0784 77.9775 31.0211 78.2496 30.9495C78.5361 30.8779 78.8011 30.7848 79.0446 30.6702C79.3024 30.5413 79.5172 30.3838 79.6891 30.1976C79.8753 30.0114 79.9684 29.7894 79.9684 29.5316ZM93.3102 34.7952C93.3102 35.2822 93.1526 35.762 92.8375 36.2347C92.5367 36.693 92.15 37.1084 91.6774 37.4808C91.219 37.8388 90.7249 38.1325 90.1949 38.3616C89.665 38.5765 89.178 38.6839 88.734 38.6839C87.9749 38.6839 87.2946 38.4977 86.693 38.1253C86.1058 37.7386 85.6116 37.2516 85.2106 36.6644C84.8095 36.0771 84.5016 35.4326 84.2867 34.7308C84.0862 34.0146 83.986 33.32 83.986 32.6468C83.986 31.9306 84.0862 31.1644 84.2867 30.348C84.4873 29.5316 84.788 28.7796 85.1891 28.0921C85.6045 27.4046 86.1201 26.8317 86.736 26.3734C87.3662 25.915 88.111 25.6859 88.9703 25.6859C89.4573 25.6859 89.9228 25.7718 90.3668 25.9437C90.8108 26.1012 91.1976 26.3304 91.527 26.6312C91.8564 26.9319 92.1214 27.29 92.3219 27.7054C92.5224 28.1207 92.6227 28.5862 92.6227 29.1019C92.6227 29.775 92.4795 30.4053 92.193 30.9925C91.9065 31.5797 91.527 32.0882 91.0543 32.5179C90.5817 32.9476 90.0374 33.2985 89.4215 33.5706C88.8056 33.8284 88.1754 33.9717 87.5309 34.0003C87.5882 34.4157 87.7529 34.7165 88.025 34.9026C88.3115 35.0888 88.6481 35.1819 89.0348 35.1819C89.3212 35.1819 89.6005 35.1103 89.8727 34.9671C90.1448 34.8239 90.4098 34.6663 90.6676 34.4944C90.9254 34.3082 91.1761 34.1435 91.4196 34.0003C91.6774 33.8571 91.9352 33.7855 92.193 33.7855C92.4795 33.7855 92.7373 33.8786 92.9664 34.0648C93.1956 34.251 93.3102 34.4944 93.3102 34.7952ZM89.8297 29.5316C89.8297 29.3454 89.7796 29.152 89.6793 28.9515C89.5791 28.751 89.4215 28.6507 89.2067 28.6507C88.8916 28.6507 88.6266 28.7366 88.4117 28.9085C88.1969 29.0661 88.0179 29.2737 87.8746 29.5316C87.7314 29.775 87.6168 30.04 87.5309 30.3265C87.4593 30.6129 87.4163 30.8779 87.402 31.1214C87.6025 31.0784 87.8388 31.0211 88.111 30.9495C88.3974 30.8779 88.6624 30.7848 88.9059 30.6702C89.1637 30.5413 89.3785 30.3838 89.5504 30.1976C89.7366 30.0114 89.8297 29.7894 89.8297 29.5316Z" fill="#ECE0D1"/>
<path d="M73.3795 44.2806C73.3795 44.5573 73.2688 44.8118 73.0475 45.0443C72.8372 45.2656 72.5771 45.4648 72.2672 45.6419C71.9684 45.8079 71.6585 45.9463 71.3375 46.0569C71.0166 46.1676 70.7509 46.2451 70.5406 46.2894C70.4521 47.1416 70.3802 47.9938 70.3248 48.846C70.2806 49.6872 70.2584 50.5338 70.2584 51.386C70.2584 51.8398 70.2695 52.2881 70.2916 52.7308C70.3138 53.1735 70.3248 53.6162 70.3248 54.0589C70.3248 54.2581 70.3027 54.4795 70.2584 54.723C70.2252 54.9554 70.1588 55.1767 70.0592 55.387C69.9707 55.5973 69.8434 55.7744 69.6774 55.9183C69.5114 56.0622 69.3066 56.1341 69.0631 56.1341C68.7753 56.1341 68.5429 56.0511 68.3658 55.8851C68.1998 55.7301 68.067 55.5364 67.9674 55.304C67.8789 55.0716 67.818 54.8281 67.7848 54.5735C67.7516 54.3079 67.735 54.07 67.735 53.8597C67.7128 53.1956 67.6962 52.5316 67.6852 51.8675C67.6741 51.1924 67.6686 50.5172 67.6686 49.8421C67.6686 49.2776 67.6686 48.7243 67.6686 48.1819C67.6796 47.6396 67.6852 47.0862 67.6852 46.5218C67.5302 46.5439 67.3698 46.5605 67.2037 46.5716C67.0488 46.5827 66.8883 46.5882 66.7223 46.5882C66.5895 46.5882 66.4124 46.5771 66.191 46.555C65.9808 46.5218 65.776 46.472 65.5768 46.4056C65.3776 46.3281 65.206 46.2285 65.0621 46.1068C64.9183 45.9739 64.8463 45.8079 64.8463 45.6087C64.8463 45.2767 64.9791 44.9889 65.2448 44.7454C65.4993 44.4909 65.8258 44.275 66.2242 44.098C66.6337 43.9098 67.082 43.7549 67.569 43.6331C68.067 43.5003 68.554 43.4007 69.0299 43.3343C69.5169 43.2568 69.9596 43.2015 70.358 43.1683C70.7675 43.1351 71.083 43.1185 71.3043 43.1185C71.5146 43.1185 71.736 43.1295 71.9684 43.1517C72.2119 43.1627 72.4388 43.207 72.649 43.2845C72.8593 43.362 73.0309 43.4782 73.1637 43.6331C73.3076 43.7881 73.3795 44.0039 73.3795 44.2806ZM75.2555 44.0316C75.2555 44.1865 75.2112 44.3248 75.1227 44.4466C75.0452 44.5683 74.9401 44.679 74.8073 44.7786C74.6744 44.8672 74.5306 44.9391 74.3756 44.9944C74.2207 45.0387 74.0768 45.0609 73.944 45.0609C73.7226 45.0609 73.5289 45.0055 73.3629 44.8948C73.1969 44.7842 73.1139 44.6126 73.1139 44.3802C73.1139 44.2142 73.1526 44.0703 73.2301 43.9485C73.3186 43.8157 73.4238 43.7106 73.5455 43.6331C73.6673 43.5446 73.8056 43.4782 73.9606 43.4339C74.1155 43.3896 74.2649 43.3675 74.4088 43.3675C74.6191 43.3675 74.8128 43.4173 74.9899 43.5169C75.167 43.6165 75.2555 43.7881 75.2555 44.0316ZM75.3883 49.6761C75.3883 49.831 75.3883 49.997 75.3883 50.1741C75.3883 50.3401 75.3828 50.5006 75.3717 50.6556C75.3606 50.8437 75.3551 51.0983 75.3551 51.4193C75.3551 51.7291 75.344 52.0667 75.3219 52.4319C75.2998 52.7972 75.261 53.1679 75.2057 53.5443C75.1614 53.9206 75.0839 54.2637 74.9733 54.5735C74.8626 54.8834 74.7132 55.138 74.525 55.3372C74.3479 55.5254 74.1211 55.625 73.8444 55.636C73.6341 55.6471 73.457 55.5641 73.3131 55.387C73.1692 55.2099 73.0475 54.9831 72.9479 54.7064C72.8593 54.4186 72.7929 54.1032 72.7487 53.7601C72.7044 53.4059 72.6712 53.0683 72.649 52.7474C72.6269 52.4153 72.6158 52.111 72.6158 51.8343C72.6158 51.5576 72.6158 51.3528 72.6158 51.22C72.6158 51.0429 72.6158 50.7939 72.6158 50.473C72.6158 50.1409 72.6269 49.7868 72.649 49.4105C72.6712 49.0342 72.7099 48.6523 72.7653 48.265C72.8317 47.8776 72.9202 47.5234 73.0309 47.2025C73.1526 46.8815 73.3076 46.6214 73.4957 46.4222C73.6839 46.223 73.9218 46.1234 74.2096 46.1234C74.5084 46.1234 74.7353 46.2728 74.8903 46.5716C75.0452 46.8704 75.1614 47.2191 75.2389 47.6175C75.3164 48.0159 75.3606 48.4144 75.3717 48.8128C75.3828 49.2002 75.3883 49.4879 75.3883 49.6761ZM86.6442 50.1409C86.6442 50.3512 86.6442 50.639 86.6442 51.0042C86.6442 51.3584 86.6331 51.7457 86.611 52.1663C86.5999 52.5869 86.5667 53.013 86.5114 53.4446C86.456 53.8652 86.3675 54.247 86.2457 54.5901C86.1351 54.9332 85.9912 55.2155 85.8141 55.4368C85.637 55.6582 85.4101 55.7689 85.1334 55.7689C84.8899 55.7689 84.7018 55.6693 84.569 55.47C84.4472 55.2597 84.3587 55.0163 84.3033 54.7396C84.248 54.4629 84.2148 54.1806 84.2037 53.8929C84.2037 53.6051 84.2037 53.3782 84.2037 53.2122C84.2037 52.7142 84.2203 52.2272 84.2535 51.7513C84.2867 51.2754 84.3033 50.7884 84.3033 50.2903C84.3033 50.235 84.3033 50.1354 84.3033 49.9915C84.3033 49.8476 84.2923 49.7038 84.2701 49.5599C84.248 49.416 84.2093 49.2887 84.1539 49.178C84.1097 49.0674 84.0377 49.012 83.9381 49.012C83.7389 49.012 83.5784 49.1172 83.4567 49.3275C83.3349 49.5267 83.2353 49.7646 83.1578 50.0413C83.0804 50.318 83.025 50.5947 82.9918 50.8714C82.9586 51.137 82.9365 51.3362 82.9254 51.4691C82.9033 51.6129 82.8811 51.8288 82.859 52.1165C82.8479 52.4043 82.8258 52.7197 82.7926 53.0628C82.7705 53.4059 82.7262 53.7601 82.6598 54.1253C82.6045 54.4795 82.527 54.806 82.4274 55.1048C82.3388 55.3926 82.2226 55.6305 82.0787 55.8187C81.9349 56.0068 81.7578 56.1009 81.5475 56.1009C81.2819 56.1009 81.0771 55.9847 80.9332 55.7523C80.7893 55.5198 80.6842 55.2487 80.6178 54.9388C80.5514 54.6289 80.5071 54.3135 80.485 53.9925C80.4739 53.6715 80.4684 53.4225 80.4684 53.2454C80.4684 53.0573 80.4684 52.8747 80.4684 52.6976C80.4795 52.5205 80.485 52.3379 80.485 52.1497C80.485 52.0722 80.485 51.945 80.485 51.7679C80.485 51.5908 80.4795 51.3971 80.4684 51.1868C80.4684 50.9655 80.4573 50.7386 80.4352 50.5062C80.4241 50.2737 80.402 50.0635 80.3688 49.8753C80.3356 49.6761 80.2858 49.5156 80.2194 49.3939C80.153 49.2721 80.0755 49.2112 79.9869 49.2112C79.8431 49.2112 79.7102 49.3053 79.5885 49.4935C79.4668 49.6706 79.3616 49.8864 79.2731 50.1409C79.1845 50.3844 79.1126 50.6279 79.0573 50.8714C79.013 51.1149 78.9908 51.292 78.9908 51.4026V51.5023C78.9908 52.0335 79.024 52.5537 79.0905 53.0628C79.1569 53.5719 79.1901 54.0921 79.1901 54.6234C79.1901 54.9332 79.0905 55.221 78.8912 55.4866C78.692 55.7412 78.4153 55.8685 78.0612 55.8685C77.8066 55.8685 77.5963 55.7744 77.4303 55.5862C77.2643 55.387 77.1259 55.1325 77.0153 54.8226C76.9046 54.5127 76.816 54.1751 76.7496 53.8099C76.6943 53.4336 76.6556 53.0683 76.6334 52.7142C76.6113 52.3489 76.5947 52.0224 76.5836 51.7347C76.5836 51.4359 76.5836 51.2145 76.5836 51.0706C76.5836 50.9046 76.5781 50.6611 76.567 50.3401C76.567 50.0192 76.5726 49.6706 76.5836 49.2943C76.6058 48.9179 76.639 48.5361 76.6832 48.1487C76.7275 47.7503 76.7994 47.3906 76.899 47.0696C76.9987 46.7487 77.1259 46.4886 77.2809 46.2894C77.4469 46.0791 77.6572 45.9739 77.9117 45.9739C78.1995 45.9739 78.4319 46.0514 78.609 46.2064C78.7972 46.3613 78.8912 46.5937 78.8912 46.9036C78.8912 46.97 78.8857 47.0364 78.8746 47.1028C78.8746 47.1693 78.8691 47.2301 78.858 47.2855C78.9798 47.1084 79.1292 46.9313 79.3063 46.7542C79.4834 46.5661 79.6715 46.4 79.8707 46.2562C80.081 46.1012 80.3024 45.9795 80.5348 45.8909C80.7672 45.7913 80.9996 45.7415 81.2321 45.7415C81.4534 45.7415 81.6526 45.8024 81.8297 45.9241C82.0068 46.0459 82.1617 46.2008 82.2946 46.389C82.4274 46.5661 82.538 46.7597 82.6266 46.97C82.7151 47.1803 82.776 47.3795 82.8092 47.5677C82.9199 47.3685 83.0527 47.1693 83.2076 46.97C83.3737 46.7597 83.5507 46.5771 83.7389 46.4222C83.927 46.2672 84.1318 46.14 84.3531 46.0403C84.5856 45.9407 84.8235 45.8909 85.067 45.8909C85.2994 45.8909 85.4987 45.9739 85.6647 46.14C85.8307 46.306 85.9746 46.5218 86.0963 46.7874C86.2181 47.042 86.3121 47.3353 86.3785 47.6673C86.4449 47.9883 86.5003 48.3092 86.5446 48.6302C86.5888 48.9401 86.6165 49.2334 86.6276 49.5101C86.6386 49.7757 86.6442 49.986 86.6442 50.1409ZM94.6959 52.6644C94.6959 53.0407 94.5742 53.4114 94.3307 53.7767C94.0983 54.1308 93.7994 54.4518 93.4342 54.7396C93.08 55.0163 92.6982 55.2431 92.2887 55.4202C91.8792 55.5862 91.5029 55.6693 91.1598 55.6693C90.5732 55.6693 90.0475 55.5254 89.5826 55.2376C89.1289 54.9388 88.747 54.5625 88.4371 54.1087C88.1272 53.6549 87.8893 53.1569 87.7233 52.6146C87.5683 52.0612 87.4908 51.5244 87.4908 51.0042C87.4908 50.4508 87.5683 49.8587 87.7233 49.2278C87.8782 48.597 88.1106 48.0159 88.4205 47.4847C88.7415 46.9534 89.1399 46.5107 89.6158 46.1566C90.1028 45.8024 90.6783 45.6253 91.3424 45.6253C91.7187 45.6253 92.0784 45.6917 92.4215 45.8245C92.7646 45.9463 93.0634 46.1234 93.318 46.3558C93.5726 46.5882 93.7773 46.8649 93.9323 47.1859C94.0872 47.5068 94.1647 47.8665 94.1647 48.265C94.1647 48.7851 94.054 49.2721 93.8326 49.7259C93.6113 50.1797 93.318 50.5726 92.9528 50.9046C92.5875 51.2366 92.167 51.5078 91.691 51.7181C91.2151 51.9173 90.7281 52.028 90.2301 52.0501C90.2744 52.3711 90.4017 52.6035 90.6119 52.7474C90.8333 52.8913 91.0934 52.9632 91.3922 52.9632C91.6136 52.9632 91.8294 52.9079 92.0397 52.7972C92.25 52.6865 92.4547 52.5648 92.6539 52.4319C92.8531 52.2881 93.0468 52.1608 93.235 52.0501C93.4342 51.9394 93.6334 51.8841 93.8326 51.8841C94.054 51.8841 94.2532 51.956 94.4303 52.0999C94.6074 52.2438 94.6959 52.4319 94.6959 52.6644ZM92.0065 48.597C92.0065 48.4531 91.9677 48.3037 91.8903 48.1487C91.8128 47.9938 91.691 47.9163 91.525 47.9163C91.2815 47.9163 91.0768 47.9827 90.9108 48.1155C90.7448 48.2373 90.6064 48.3978 90.4957 48.597C90.3851 48.7851 90.2965 48.9899 90.2301 49.2112C90.1748 49.4326 90.1416 49.6373 90.1305 49.8255C90.2854 49.7923 90.4681 49.748 90.6783 49.6927C90.8997 49.6373 91.1045 49.5654 91.2926 49.4769C91.4918 49.3773 91.6578 49.2555 91.7906 49.1116C91.9345 48.9678 92.0065 48.7962 92.0065 48.597Z" fill="#ECE0D1"/>
</svg>
