<svg width="31" height="39" viewBox="0 0 31 39" fill="none" xmlns="http://www.w3.org/2000/svg">
<path d="M15.0854 0.884796C6.78841 0.884796 0 7.57952 0 15.762C0 25.804 13.1997 37.1479 13.7654 37.7058C14.1425 37.8917 14.7082 38.0777 15.0854 38.0777C15.4625 38.0777 16.0282 37.8917 16.4053 37.7058C16.971 37.1479 30.1707 25.804 30.1707 15.762C30.1707 7.57952 23.3823 0.884796 15.0854 0.884796ZM15.0854 33.8005C11.1254 30.0812 3.77134 22.0848 3.77134 15.762C3.77134 9.62513 8.86264 4.60409 15.0854 4.60409C21.3081 4.60409 26.3994 9.62513 26.3994 15.762C26.3994 21.8988 19.0453 30.0812 15.0854 33.8005ZM15.0854 8.32338C10.9369 8.32338 7.54268 11.6707 7.54268 15.762C7.54268 19.8532 10.9369 23.2005 15.0854 23.2005C19.2338 23.2005 22.628 19.8532 22.628 15.762C22.628 11.6707 19.2338 8.32338 15.0854 8.32338ZM15.0854 19.4812C13.0111 19.4812 11.314 17.8076 11.314 15.762C11.314 13.7163 13.0111 12.0427 15.0854 12.0427C17.1596 12.0427 18.8567 13.7163 18.8567 15.762C18.8567 17.8076 17.1596 19.4812 15.0854 19.4812Z" fill="#ECE0D1"/>
</svg>
