<svg width="38" height="39" viewBox="0 0 38 39" fill="none" xmlns="http://www.w3.org/2000/svg">
<path d="M20.2219 6.67239H17.6982V20.7193L26.8161 25.0528L27.8995 22.7734L20.2219 19.1244V6.67239Z" fill="#ECE0D1"/>
<path d="M18.9984 0.402557C8.54485 0.402557 0.0705566 8.87685 0.0705566 19.3304C0.0705566 29.7839 8.54485 38.2581 18.9984 38.2581C29.4519 38.2581 37.9261 29.7839 37.9261 19.3304C37.9261 8.87685 29.4519 0.402557 18.9984 0.402557ZM18.9984 35.7344C9.93864 35.7344 2.59426 28.3901 2.59426 19.3304C2.59426 10.2706 9.93864 2.92626 18.9984 2.92626C28.0581 2.92626 35.4024 10.2706 35.4024 19.3304C35.4024 28.3901 28.0581 35.7344 18.9984 35.7344Z" fill="#ECE0D1"/>
</svg>
