<svg width="38" height="39" viewBox="0 0 38 39" fill="none" xmlns="http://www.w3.org/2000/svg">
<path d="M20.1513 6.72827H17.6276V20.7751L26.7455 25.1087L27.8289 22.8293L20.1513 19.1803V6.72827Z" fill="#38220F"/>
<path d="M18.9278 0.458496C8.47429 0.458496 0 8.93278 0 19.3863C0 29.8398 8.47429 38.3141 18.9278 38.3141C29.3813 38.3141 37.8556 29.8398 37.8556 19.3863C37.8556 8.93278 29.3813 0.458496 18.9278 0.458496ZM18.9278 35.7904C9.86808 35.7904 2.52371 28.446 2.52371 19.3863C2.52371 10.3266 9.86808 2.9822 18.9278 2.9822C27.9875 2.9822 35.3319 10.3266 35.3319 19.3863C35.3319 28.446 27.9875 35.7904 18.9278 35.7904Z" fill="#38220F"/>
</svg>
