<svg width="31" height="38" viewBox="0 0 31 38" fill="none" xmlns="http://www.w3.org/2000/svg">
<path d="M15.0854 0.805664C6.78841 0.805664 0 7.50039 0 15.6828C0 25.7249 13.1997 37.0687 13.7654 37.6266C14.1425 37.8126 14.7082 37.9986 15.0854 37.9986C15.4625 37.9986 16.0282 37.8126 16.4053 37.6266C16.971 37.0687 30.1707 25.7249 30.1707 15.6828C30.1707 7.50039 23.3823 0.805664 15.0854 0.805664ZM15.0854 33.7214C11.1254 30.0021 3.77134 22.0056 3.77134 15.6828C3.77134 9.546 8.86264 4.52495 15.0854 4.52495C21.3081 4.52495 26.3994 9.546 26.3994 15.6828C26.3994 21.8197 19.0453 30.0021 15.0854 33.7214ZM15.0854 8.24424C10.9369 8.24424 7.54268 11.5916 7.54268 15.6828C7.54268 19.774 10.9369 23.1214 15.0854 23.1214C19.2338 23.1214 22.628 19.774 22.628 15.6828C22.628 11.5916 19.2338 8.24424 15.0854 8.24424ZM15.0854 19.4021C13.0111 19.4021 11.314 17.7284 11.314 15.6828C11.314 13.6372 13.0111 11.9635 15.0854 11.9635C17.1596 11.9635 18.8567 13.6372 18.8567 15.6828C18.8567 17.7284 17.1596 19.4021 15.0854 19.4021Z" fill="#38220F"/>
</svg>
