<svg width="18" height="16" viewBox="0 0 18 16" fill="none" xmlns="http://www.w3.org/2000/svg">
<path d="M9.10059 0.344482C4.54313 0.344482 0.850586 3.82419 0.850586 8.11896C0.850586 12.4137 4.54313 15.8934 9.10059 15.8934C13.658 15.8934 17.3506 12.4137 17.3506 8.11896C17.3506 3.82419 13.658 0.344482 9.10059 0.344482ZM9.10059 3.35396C10.7173 3.35396 12.028 4.5891 12.028 6.11265C12.028 7.63619 10.7173 8.87133 9.10059 8.87133C7.48385 8.87133 6.17317 7.63619 6.17317 6.11265C6.17317 4.5891 7.48385 3.35396 9.10059 3.35396ZM9.10059 14.1379C7.14786 14.1379 5.39807 13.304 4.2271 11.9999C4.8525 10.8902 6.07669 10.1253 7.50381 10.1253C7.58365 10.1253 7.66349 10.1378 7.74 10.1598C8.17246 10.2914 8.62488 10.3761 9.10059 10.3761C9.57629 10.3761 10.032 10.2914 10.4612 10.1598C10.5377 10.1378 10.6175 10.1253 10.6974 10.1253C12.1245 10.1253 13.3487 10.8902 13.9741 11.9999C12.8031 13.304 11.0533 14.1379 9.10059 14.1379Z" fill="#ECE0D1"/>
</svg>
