<svg width="15" height="16" viewBox="0 0 15 16" fill="none" xmlns="http://www.w3.org/2000/svg">
<path d="M12.8268 8.01823H5.3189V4.89705C5.3189 3.69822 6.27857 2.70223 7.47742 2.69012C8.68837 2.67801 9.67832 3.6619 9.67832 4.8698V5.35418C9.67832 5.75681 10.0022 6.08074 10.4049 6.08074H11.3736C11.7763 6.08074 12.1002 5.75681 12.1002 5.35418V4.8698C12.1002 2.32684 10.0265 0.259167 7.48347 0.268249C4.94047 0.277331 2.897 2.37225 2.897 4.91521V8.01823H2.17043C1.36817 8.01823 0.717285 8.66911 0.717285 9.47136V14.3151C0.717285 15.1173 1.36817 15.7682 2.17043 15.7682H12.8268C13.629 15.7682 14.2799 15.1173 14.2799 14.3151V9.47136C14.2799 8.66911 13.629 8.01823 12.8268 8.01823ZM8.70956 12.6198C8.70956 13.2888 8.16766 13.8307 7.49861 13.8307C6.82956 13.8307 6.28766 13.2888 6.28766 12.6198V11.1667C6.28766 10.4976 6.82956 9.95573 7.49861 9.95573C8.16766 9.95573 8.70956 10.4976 8.70956 11.1667V12.6198Z" fill="#ECE0D1"/>
</svg>
