<svg width="12" height="16" viewBox="0 0 12 16" fill="none" xmlns="http://www.w3.org/2000/svg">
<path d="M9.58105 0.16909H2.3623C1.51152 0.16909 0.81543 0.825062 0.81543 1.62681V14.2603C0.81543 15.0621 1.51152 15.7181 2.3623 15.7181H9.58105C10.4318 15.7181 11.1279 15.0621 11.1279 14.2603V1.62681C11.1279 0.825062 10.4318 0.16909 9.58105 0.16909ZM5.97168 14.7462C5.4014 14.7462 4.94043 14.3118 4.94043 13.7744C4.94043 13.237 5.4014 12.8026 5.97168 12.8026C6.54196 12.8026 7.00293 13.237 7.00293 13.7744C7.00293 14.3118 6.54196 14.7462 5.97168 14.7462ZM10.0967 11.8308H1.84668V2.11271H10.0967V11.8308Z" fill="#ECE0D1"/>
</svg>
