<svg width="40" height="41" viewBox="0 0 40 41" fill="none" xmlns="http://www.w3.org/2000/svg">
<g clip-path="url(#clip0_140_17)">
<path d="M28.961 0.517746H11.0383C4.95176 0.517746 0 5.46975 0 11.5562V29.479C0 35.5657 4.95176 40.5175 11.0383 40.5175H28.961C35.048 40.5175 39.9998 35.5655 39.9998 29.479V11.5562C40 5.46975 35.048 0.517746 28.961 0.517746ZM36.451 29.479C36.451 33.6088 33.0911 36.9685 28.9613 36.9685H11.0383C6.90867 36.9688 3.54897 33.6088 3.54897 29.479V11.5562C3.54897 7.42665 6.90867 4.06672 11.0383 4.06672H28.961C33.0909 4.06672 36.4508 7.42665 36.4508 11.5562V29.479H36.451Z" fill="black"/>
<path d="M19.9999 10.2112C14.3165 10.2112 9.69293 14.8348 9.69293 20.5181C9.69293 26.2012 14.3165 30.8246 19.9999 30.8246C25.6832 30.8246 30.3068 26.2012 30.3068 20.5181C30.3068 14.8348 25.6832 10.2112 19.9999 10.2112ZM19.9999 27.2754C16.2737 27.2754 13.2419 24.2441 13.2419 20.5179C13.2419 16.7914 16.2734 13.7599 19.9999 13.7599C23.7263 13.7599 26.7578 16.7914 26.7578 20.5179C26.7578 24.2441 23.726 27.2754 19.9999 27.2754Z" fill="black"/>
<path d="M30.7391 7.20189C30.0553 7.20189 29.3836 7.47871 28.9007 7.96374C28.4154 8.4464 28.1365 9.11833 28.1365 9.80447C28.1365 10.4885 28.4157 11.1602 28.9007 11.6452C29.3833 12.1279 30.0553 12.407 30.7391 12.407C31.4252 12.407 32.0948 12.1279 32.5798 11.6452C33.0648 11.1602 33.3416 10.4882 33.3416 9.80447C33.3416 9.11833 33.0648 8.4464 32.5798 7.96374C32.0971 7.47871 31.4252 7.20189 30.7391 7.20189Z" fill="black"/>
</g>
<defs>
<clipPath id="clip0_140_17">
<rect width="40" height="40" fill="white" transform="translate(0 0.517746)"/>
</clipPath>
</defs>
</svg>
