<svg width="40" height="41" viewBox="0 0 40 41" fill="none" xmlns="http://www.w3.org/2000/svg">
<g clip-path="url(#clip0_140_24)">
<path d="M32.2011 38.5177C31.8886 38.5177 31.5783 38.4253 31.3121 38.2448L21.2545 31.4225L15.8602 35.304C15.4371 35.6082 14.8918 35.6848 14.4005 35.5092C13.9099 35.3331 13.5373 34.9267 13.4043 34.4228L10.6957 24.1581L1.01775 20.4576C0.408477 20.2245 0.00440915 19.6416 -2.41946e-05 18.9893C-0.00445754 18.3369 0.391588 17.7486 0.997902 17.5073L37.7972 2.86454C37.9642 2.79361 38.1409 2.75265 38.3191 2.74168C38.3829 2.73788 38.4468 2.73788 38.5104 2.74147C38.8794 2.76342 39.2419 2.91373 39.5248 3.19113C39.5541 3.21985 39.582 3.24919 39.6084 3.2798C39.8427 3.54749 39.9715 3.87387 39.9958 4.20637C40.0017 4.28997 40.0012 4.37463 39.9939 4.45928C39.9888 4.51966 39.9801 4.57983 39.9679 4.63957L33.7563 37.2308C33.6565 37.7544 33.3001 38.1926 32.8078 38.3968C32.6125 38.4778 32.4063 38.5177 32.2011 38.5177ZM22.1376 28.195L31.0965 34.2719L35.9297 8.91227L18.4735 25.7096L22.0954 28.1665C22.1099 28.1756 22.1239 28.1853 22.1376 28.195ZM14.6796 26.8437L15.8792 31.3889L18.4636 29.5292L15.0795 27.2336C14.9222 27.1272 14.7875 26.9946 14.6796 26.8437ZM5.93982 18.9489L12.5852 21.4897C13.0613 21.6717 13.4206 22.0719 13.5506 22.5647L14.3934 25.7586C14.432 25.3902 14.599 25.0435 14.8703 24.7824L31.5036 8.77715L5.93982 18.9489Z" fill="black"/>
</g>
<defs>
<clipPath id="clip0_140_24">
<rect width="40" height="40" fill="white" transform="translate(0 0.628235)"/>
</clipPath>
</defs>
</svg>
