<svg width="48" height="48" viewBox="0 0 48 48" fill="none" xmlns="http://www.w3.org/2000/svg">
<g clip-path="url(#clip0_140_22)">
<path d="M45.4566 32.0346C44.4333 30.8062 43.2704 29.7053 42.1458 28.6406C41.7459 28.2619 41.3325 27.8705 40.9339 27.4812C39.7896 26.3624 39.7479 25.9421 40.6539 24.6713C41.2807 23.7953 41.9453 22.9182 42.588 22.0699C43.1709 21.3003 43.7738 20.5044 44.3515 19.706L44.4702 19.5418C45.5745 18.0138 46.7165 16.4338 47.3243 14.5278C47.4822 14.025 47.6479 13.285 47.269 12.6662C46.8903 12.0479 46.1557 11.8593 45.6361 11.7712C45.379 11.7276 45.1237 11.7217 44.8869 11.7217L37.655 11.7165L37.5952 11.716C36.5018 11.716 35.7649 12.2313 35.3427 13.2914C34.9395 14.3044 34.4967 15.3831 33.9914 16.4087C32.9858 18.4511 31.7087 20.8034 29.8606 22.7653L29.7825 22.8487C29.5642 23.0833 29.317 23.3489 29.1363 23.3489C29.1086 23.3489 29.0785 23.3436 29.0443 23.3328C28.6615 23.1837 28.4046 22.257 28.4162 21.8259C28.4164 21.82 28.4165 21.814 28.4165 21.8081L28.4114 13.4495C28.4114 13.4205 28.4094 13.3918 28.4056 13.3631C28.2216 12.0043 27.8141 11.1585 26.2744 10.857C26.2335 10.8488 26.1917 10.8448 26.1501 10.8448H18.6303C17.4052 10.8448 16.7302 11.3427 16.0956 12.088C15.9243 12.2873 15.5678 12.702 15.7445 13.2051C15.9238 13.7158 16.5058 13.825 16.6954 13.8604C17.6361 14.0394 18.1664 14.6149 18.3166 15.6203C18.5788 17.3663 18.6111 19.2299 18.418 21.4852C18.3642 22.112 18.2578 22.5961 18.0823 23.0097C18.0416 23.1062 17.8971 23.4212 17.7497 23.4213C17.7029 23.4213 17.5674 23.4029 17.3207 23.2329C16.7374 22.8333 16.3106 22.2631 15.8131 21.5587C14.1204 19.1665 12.6998 16.5312 11.4695 13.5005C11.0132 12.3848 10.161 11.7602 9.06891 11.7418C7.86888 11.7236 6.78089 11.7148 5.74321 11.7148C4.60942 11.7148 3.5583 11.7253 2.53188 11.7466C1.6532 11.7622 1.04543 12.0256 0.725625 12.5301C0.405306 13.035 0.426135 13.6983 0.787593 14.5012C3.68107 20.9338 6.30455 25.6109 9.29427 29.6669C11.3891 32.505 13.4904 34.4695 15.9062 35.8487C18.4514 37.3047 21.3038 38.0126 24.626 38.0126C25.0026 38.0126 25.392 38.0034 25.7846 37.9851C27.715 37.891 28.4312 37.1923 28.5218 35.3127C28.5649 34.3521 28.6699 33.3447 29.1421 32.4856C29.4402 31.9443 29.7181 31.9443 29.8094 31.9443C29.9853 31.9443 30.2035 32.0253 30.4377 32.177C30.8579 32.4513 31.2182 32.8187 31.5136 33.1397C31.7916 33.4446 32.0665 33.7526 32.3417 34.0608C32.9355 34.7259 33.5495 35.4135 34.1909 36.0656C35.5948 37.494 37.1414 38.1222 38.9178 37.9858H45.5482C45.5623 37.9858 45.5765 37.9853 45.5906 37.9844C46.2513 37.9408 46.8235 37.5743 47.1605 36.979C47.578 36.2414 47.5696 35.3005 47.138 34.4614C46.6484 33.5126 46.0132 32.702 45.4566 32.0346Z" fill="black"/>
</g>
<defs>
<clipPath id="clip0_140_22">
<rect width="47" height="47" fill="white" transform="translate(0.5 0.928772)"/>
</clipPath>
</defs>
</svg>
